<?xml version="1.0" encoding="UTF-8" standalone="no"?><!-- Generator: Gravit.io --><svg xmlns="http://www.w3.org/2000/svg" xmlns:xlink="http://www.w3.org/1999/xlink" style="isolation:isolate" viewBox="0 0 250 250" width="250pt" height="250pt"><defs><clipPath id="_clipPath_3efTNNs750lMudnG0PM1JuQMp3X2JYwG"><rect width="250" height="250"/></clipPath></defs><g clip-path="url(#_clipPath_3efTNNs750lMudnG0PM1JuQMp3X2JYwG)"><g><path d=" M 85.113 86.341 C 85.113 84.16 86.173 81.054 87.609 79.527 C 87.609 79.527 91.1 73.716 100.214 73.716 C 110.639 73.716 113.698 80.475 113.698 80.475 C 114.904 82.181 115.883 85.33 115.883 87.513 L 115.883 127.296 C 115.883 127.296 111.329 122.655 102.681 121.264 Q 94.84 120.003 85.113 126.894 L 85.113 86.341 Z " fill-rule="evenodd" fill="rgb(255,157,20)" fill-opacity="0.5"/><path d=" M 159.189 87.147 L 159.189 125.283 Q 149.102 119.921 140.97 121.149 C 132 122.503 127.279 128.419 127.279 128.419 L 127.279 88.289 C 127.279 86.163 128.293 83.097 129.545 81.436 C 129.545 81.436 132.717 74.856 143.529 74.856 C 152.98 74.856 156.601 80.513 156.601 80.513 C 158.087 82 159.189 85.024 159.189 87.147 Z " fill-rule="evenodd" fill="rgb(255,157,20)" fill-opacity="0.5"/><g><g><path d=" M 190.475 54.759 C 174.989 32.877 149.48 18.58 120.658 18.58 C 73.485 18.58 35.186 56.879 35.186 104.053 L 35.186 104.053 C 35.186 116.843 38.001 128.98 43.045 139.878 L 50.481 135.585 C 46.146 125.96 43.733 115.286 43.733 104.053 L 43.733 104.053 C 43.733 61.597 78.202 27.128 120.658 27.128 C 146.318 27.128 169.06 39.718 183.038 59.053 L 190.475 54.759 Z  M 199.025 69.902 C 203.595 80.364 206.131 91.915 206.131 104.053 C 206.131 151.227 167.832 189.526 120.658 189.526 C 92.495 189.526 67.494 175.875 51.918 154.834 L 59.373 150.53 C 73.427 169.027 95.658 180.978 120.658 180.978 C 163.115 180.978 197.584 146.509 197.584 104.053 C 197.584 93.471 195.442 83.386 191.57 74.206 L 199.025 69.902 Z " fill-rule="evenodd" fill="rgb(0,0,0)"/><path d=" M 240.377 217.11 L 183.162 159.895 L 171.075 171.983 L 228.29 229.198 L 228.29 229.198 L 228.29 229.198 C 231.403 232.311 236.639 232.131 239.974 228.795 C 243.31 225.459 243.491 220.223 240.377 217.11 L 240.377 217.11 Z " fill-rule="evenodd" fill="rgb(0,0,0)"/><linearGradient id="_lgradient_0" x1="0" y1="0.5" x2="1" y2="0.5" gradientTransform="matrix(95.742,0,0,9.188,29.679,125.527)" gradientUnits="userSpaceOnUse"><stop offset="0%" stop-opacity="1" style="stop-color:rgb(255,157,45)"/><stop offset="27.083333333333332%" stop-opacity="1" style="stop-color:rgb(255,157,45)"/><stop offset="44.583333333333336%" stop-opacity="0" style="stop-color:rgb(255,157,45)"/><stop offset="100%" stop-opacity="0" style="stop-color:rgb(255,157,45)"/></linearGradient><rect x="29.679" y="125.527" width="95.742" height="9.188" transform="matrix(0.866,-0.5,0.5,0.866,-54.671,56.208)" fill="url(#_lgradient_0)"/><linearGradient id="_lgradient_1" x1="0" y1="0.5" x2="1" y2="0.5" gradientTransform="matrix(108.444,0,0,9.188,112.228,74.201)" gradientUnits="userSpaceOnUse"><stop offset="0%" stop-opacity="0" style="stop-color:rgb(255,157,45)"/><stop offset="52.916666666666664%" stop-opacity="0" style="stop-color:rgb(255,157,45)"/><stop offset="70.41666666666667%" stop-opacity="1" style="stop-color:rgb(255,157,45)"/><stop offset="98.75%" stop-opacity="1" style="stop-color:rgb(255,157,45)"/><stop offset="100%" stop-opacity="1" style="stop-color:rgb(255,157,45)"/></linearGradient><rect x="112.228" y="74.201" width="108.444" height="9.188" transform="matrix(0.866,-0.5,0.5,0.866,-17.097,93.781)" fill="url(#_lgradient_1)"/><path d=" M 211.111 47.705 L 250 69.973 L 206.837 55.662 L 211.111 47.705 Z " fill="rgb(255,157,45)"/><path d=" M 43.163 150.078 L 38.569 158.035 L 0 135.767 L 43.163 150.078 Z " fill="rgb(255,157,45)"/></g><path d=" M 80.204 84.992 C 80.204 82.35 81.603 78.589 83.496 76.739 C 83.496 76.739 88.1 69.7 100.117 69.7 C 113.865 69.7 117.899 77.887 117.899 77.887 C 119.488 79.954 120.78 83.768 120.78 86.413 L 120.78 138.886 C 120.78 138.886 114.775 128.981 103.37 127.296 C 93.031 125.768 82.288 134.115 82.288 134.115 L 80.204 134.115 L 80.204 84.992 Z  M 85.113 86.341 C 85.113 84.16 86.173 81.054 87.609 79.527 C 87.609 79.527 91.1 73.716 100.214 73.716 C 110.639 73.716 113.698 80.475 113.698 80.475 C 114.904 82.181 115.883 85.33 115.883 87.513 L 115.883 127.296 C 115.883 127.296 111.329 122.655 102.681 121.264 Q 94.84 120.003 85.113 126.894 L 85.113 86.341 Z " fill-rule="evenodd" fill="rgb(0,0,0)"/><path d=" M 163.742 84.992 L 163.742 134.113 L 161.656 134.113 C 161.656 134.113 150.915 125.768 140.576 127.296 C 129.169 128.981 123.167 138.886 123.167 138.886 L 123.167 86.413 C 123.167 83.768 124.455 79.954 126.047 77.887 C 126.047 77.887 130.081 69.7 143.829 69.7 C 155.846 69.7 160.451 76.739 160.451 76.739 C 162.341 78.589 163.742 82.35 163.742 84.992 Z  M 159.189 87.147 L 159.189 125.283 Q 149.102 119.921 140.97 121.149 C 132 122.503 127.279 128.419 127.279 128.419 L 127.279 88.289 C 127.279 86.163 128.293 83.097 129.545 81.436 C 129.545 81.436 132.717 74.856 143.529 74.856 C 152.98 74.856 156.601 80.513 156.601 80.513 C 158.087 82 159.189 85.024 159.189 87.147 Z " fill-rule="evenodd" fill="rgb(0,0,0)"/></g><path d=" M 74.705 120.48 L 55.049 131.829 C 51.656 123.327 49.784 114.018 49.784 104.264 C 49.784 64.158 82.61 30.41 121.581 30.41 C 144.916 30.41 166.81 43.272 179.669 61.25 L 162.44 70.512 L 162.44 70.512 C 162.44 70.512 156.848 64.893 145.592 64.893 C 129.806 64.893 125.174 72.342 125.174 72.342 C 124.129 73.759 123.198 75.861 122.606 78.001 C 122.003 75.861 121.054 73.759 119.991 72.342 C 119.991 72.342 115.272 64.893 99.188 64.893 C 85.129 64.893 78.556 73.338 78.556 73.338 C 76.342 75.557 74.705 80.07 74.705 83.24 L 74.705 120.48 Z  M 76.909 142.172 L 64.5 148.651 C 77.419 165.849 98.846 178.118 121.581 178.118 C 160.552 178.118 193.378 144.37 193.378 104.264 Q 193.378 95.117 188.73 78.298 L 169.644 89.317 L 169.644 142.169 L 167.248 142.169 C 167.248 142.169 153.729 133.346 141.856 135.178 C 132.296 136.654 123.131 147.601 122.607 146.894 C 122.092 147.601 112.721 136.652 102.994 135.178 C 90.898 133.346 78.33 142.172 78.33 142.172 L 76.909 142.172 Z " fill-rule="evenodd" fill="rgb(255,157,45)" fill-opacity="0.2"/></g></g></svg>