<?xml version="1.0" encoding="UTF-8" standalone="no"?><!-- Generator: Gravit.io --><svg xmlns="http://www.w3.org/2000/svg" xmlns:xlink="http://www.w3.org/1999/xlink" style="isolation:isolate" viewBox="0 0 250 250" width="250pt" height="250pt"><defs><clipPath id="_clipPath_6eq5XfpRq8RgjFON6QzFSybmwy4Nm9mm"><rect width="250" height="250"/></clipPath></defs><g clip-path="url(#_clipPath_6eq5XfpRq8RgjFON6QzFSybmwy4Nm9mm)"><g><g><path d=" M 73.913 100.488 C 73.913 97.338 75.445 92.854 77.518 90.649 C 77.518 90.649 82.56 82.257 95.721 82.257 C 110.777 82.257 115.194 92.017 115.194 92.017 C 116.935 94.482 118.349 99.029 118.349 102.182 L 118.349 159.633 C 118.349 159.633 111.773 152.931 99.283 150.922 Q 87.96 149.101 73.913 159.052 L 73.913 100.488 Z " fill-rule="evenodd" fill="rgb(255,157,20)" fill-opacity="0.5"/><path d=" M 180.888 101.653 L 180.888 156.726 Q 166.321 148.983 154.578 150.756 C 141.624 152.712 134.807 161.254 134.807 161.254 L 134.807 103.302 C 134.807 100.232 136.271 95.805 138.079 93.406 C 138.079 93.406 142.66 83.903 158.273 83.903 C 171.921 83.903 177.15 92.073 177.15 92.073 C 179.297 94.22 180.888 98.586 180.888 101.653 Z " fill-rule="evenodd" fill="rgb(255,157,20)" fill-opacity="0.5"/><g><g><path d=" M 226.069 54.881 C 203.706 23.28 166.867 2.634 125.245 2.634 C 57.121 2.634 1.812 57.943 1.812 126.067 L 1.812 126.067 C 1.812 144.537 5.878 162.064 13.162 177.803 L 23.901 171.603 C 17.64 157.704 14.155 142.289 14.155 126.067 L 14.155 126.067 C 14.155 64.755 63.933 14.977 125.245 14.977 C 162.301 14.977 195.143 33.16 215.329 61.082 L 226.069 54.881 Z  M 238.416 76.749 C 245.016 91.857 248.678 108.538 248.678 126.067 C 248.678 194.192 193.37 249.5 125.245 249.5 C 84.573 249.5 48.47 229.786 25.976 199.401 L 36.742 193.186 C 57.038 219.897 89.142 237.157 125.245 237.157 C 186.557 237.157 236.335 187.379 236.335 126.067 C 236.335 110.786 233.243 96.221 227.65 82.965 L 238.416 76.749 Z " fill-rule="evenodd" fill="rgb(0,0,0)"/><path d=" M 298.134 289.335 L 215.509 206.71 L 198.053 224.166 L 280.678 306.791 L 280.678 306.791 L 280.678 306.791 C 285.174 311.287 292.735 311.027 297.552 306.21 C 302.369 301.392 302.63 293.831 298.134 289.335 L 298.134 289.335 Z " fill-rule="evenodd" fill="rgb(0,0,0)"/><linearGradient id="_lgradient_4" x1="0" y1="0.5" x2="1" y2="0.5" gradientTransform="matrix(138.263,0,0,13.269,-6.14,157.078)" gradientUnits="userSpaceOnUse"><stop offset="0%" stop-opacity="1" style="stop-color:rgb(255,157,45)"/><stop offset="27.083333333333332%" stop-opacity="1" style="stop-color:rgb(255,157,45)"/><stop offset="44.583333333333336%" stop-opacity="0" style="stop-color:rgb(255,157,45)"/><stop offset="100%" stop-opacity="0" style="stop-color:rgb(255,157,45)"/></linearGradient><rect x="-6.14" y="157.078" width="138.263" height="13.269" transform="matrix(0.866,-0.5,0.5,0.866,-73.417,53.429)" fill="url(#_lgradient_4)"/><linearGradient id="_lgradient_5" x1="0" y1="0.5" x2="1" y2="0.5" gradientTransform="matrix(156.607,0,0,13.269,113.07,82.957)" gradientUnits="userSpaceOnUse"><stop offset="0%" stop-opacity="0" style="stop-color:rgb(255,157,45)"/><stop offset="52.916666666666664%" stop-opacity="0" style="stop-color:rgb(255,157,45)"/><stop offset="70.41666666666667%" stop-opacity="1" style="stop-color:rgb(255,157,45)"/><stop offset="98.75%" stop-opacity="1" style="stop-color:rgb(255,157,45)"/><stop offset="100%" stop-opacity="1" style="stop-color:rgb(255,157,45)"/></linearGradient><rect x="113.07" y="82.957" width="156.607" height="13.269" transform="matrix(0.866,-0.5,0.5,0.866,-19.156,107.69)" fill="url(#_lgradient_5)"/><path d=" M 255.869 44.694 L 312.03 76.852 L 249.698 56.185 L 255.869 44.694 Z " fill="rgb(255,157,45)"/><path d=" M 13.333 192.533 L 6.698 204.024 L -49 171.866 L 13.333 192.533 Z " fill="rgb(255,157,45)"/></g><path d=" M 66.825 98.541 C 66.825 94.726 68.845 89.294 71.578 86.622 C 71.578 86.622 78.227 76.458 95.581 76.458 C 115.435 76.458 121.26 88.28 121.26 88.28 C 123.556 91.265 125.421 96.773 125.421 100.592 L 125.421 176.371 C 125.421 176.371 116.748 162.066 100.28 159.633 C 85.348 157.427 69.834 169.48 69.834 169.48 L 66.825 169.48 L 66.825 98.541 Z  M 73.913 100.488 C 73.913 97.338 75.445 92.854 77.518 90.649 C 77.518 90.649 82.56 82.257 95.721 82.257 C 110.777 82.257 115.194 92.017 115.194 92.017 C 116.935 94.482 118.349 99.029 118.349 102.182 L 118.349 159.633 C 118.349 159.633 111.773 152.931 99.283 150.922 Q 87.96 149.101 73.913 159.052 L 73.913 100.488 Z " fill-rule="evenodd" fill="rgb(0,0,0)"/><path d=" M 187.463 98.541 L 187.463 169.477 L 184.451 169.477 C 184.451 169.477 168.94 157.427 154.009 159.633 C 137.536 162.066 128.867 176.371 128.867 176.371 L 128.867 100.592 C 128.867 96.773 130.729 91.265 133.028 88.28 C 133.028 88.28 138.853 76.458 158.707 76.458 C 176.061 76.458 182.71 86.622 182.71 86.622 C 185.44 89.294 187.463 94.726 187.463 98.541 Z  M 180.888 101.653 L 180.888 156.726 Q 166.321 148.983 154.578 150.756 C 141.624 152.712 134.807 161.254 134.807 161.254 L 134.807 103.302 C 134.807 100.232 136.271 95.805 138.079 93.406 C 138.079 93.406 142.66 83.903 158.273 83.903 C 171.921 83.903 177.15 92.073 177.15 92.073 C 179.297 94.22 180.888 98.586 180.888 101.653 Z " fill-rule="evenodd" fill="rgb(0,0,0)"/></g><path d=" M 58.884 149.79 L 30.498 166.179 C 25.597 153.901 22.894 140.458 22.894 126.372 C 22.894 68.454 70.299 19.718 126.578 19.718 C 160.277 19.718 191.893 38.291 210.464 64.254 L 185.583 77.63 L 185.583 77.63 C 185.583 77.63 177.507 69.516 161.252 69.516 C 138.455 69.516 131.767 80.272 131.767 80.272 C 130.258 82.319 128.913 85.354 128.058 88.445 C 127.187 85.354 125.816 82.319 124.281 80.272 C 124.281 80.272 117.467 69.516 94.24 69.516 C 73.937 69.516 64.444 81.711 64.444 81.711 C 61.247 84.915 58.884 91.432 58.884 96.01 L 58.884 149.79 Z  M 62.066 181.116 L 44.146 190.472 C 62.802 215.307 93.745 233.025 126.578 233.025 C 182.857 233.025 230.262 184.29 230.262 126.372 Q 230.262 113.163 223.548 88.873 L 195.986 104.787 L 195.986 181.112 L 192.527 181.112 C 192.527 181.112 173.003 168.369 155.858 171.016 C 142.052 173.146 128.816 188.956 128.059 187.935 C 127.316 188.956 113.783 173.144 99.736 171.016 C 82.268 168.369 64.118 181.116 64.118 181.116 L 62.066 181.116 Z " fill-rule="evenodd" fill="rgb(255,157,45)" fill-opacity="0.2"/></g></g></g></svg>