<?xml version="1.0" encoding="UTF-8" standalone="no"?><!-- Generator: Gravit.io --><svg xmlns="http://www.w3.org/2000/svg" xmlns:xlink="http://www.w3.org/1999/xlink" style="isolation:isolate" viewBox="0 0 50 50" width="100pt" height="100pt"><defs><clipPath id="_clipPath_heAQ63bW2FX0JyA7ASzXXnwKXNRL16mf"><rect width="50" height="50"/></clipPath></defs><g clip-path="url(#_clipPath_heAQ63bW2FX0JyA7ASzXXnwKXNRL16mf)"><clipPath id="_clipPath_ds7IkUk6PZUvOaU134NeKr9uWTFDdvpt"><circle vector-effect="non-scaling-stroke" cx="24.999999999999996" cy="24.999999999999996" r="25" fill="rgb(255,255,255)"/></clipPath><g clip-path="url(#_clipPath_ds7IkUk6PZUvOaU134NeKr9uWTFDdvpt)"><g><g><path d=" M 17.451 21.436 C 17.451 21.021 17.653 20.429 17.926 20.139 C 17.926 20.139 18.591 19.032 20.327 19.032 C 22.313 19.032 22.895 20.319 22.895 20.319 C 23.125 20.644 23.312 21.244 23.312 21.66 L 23.312 29.237 C 23.312 29.237 22.444 28.353 20.797 28.088 Q 19.304 27.848 17.451 29.16 L 17.451 21.436 Z " fill-rule="evenodd" fill="rgb(255,157,20)" fill-opacity="0.5"/><path d=" M 31.56 21.59 L 31.56 28.853 Q 29.638 27.832 28.09 28.066 C 26.381 28.324 25.482 29.45 25.482 29.45 L 25.482 21.807 C 25.482 21.402 25.675 20.819 25.914 20.502 C 25.914 20.502 26.518 19.249 28.577 19.249 C 30.377 19.249 31.067 20.326 31.067 20.326 C 31.35 20.61 31.56 21.185 31.56 21.59 Z " fill-rule="evenodd" fill="rgb(255,157,20)" fill-opacity="0.5"/><g><g><path d=" M 37.518 15.421 C 34.569 11.254 29.71 8.531 24.221 8.531 C 15.236 8.531 7.942 15.825 7.942 24.81 L 7.942 24.81 C 7.942 27.246 8.478 29.557 9.439 31.633 L 10.855 30.815 C 10.029 28.982 9.57 26.949 9.57 24.81 L 9.57 24.81 C 9.57 16.724 16.135 10.159 24.221 10.159 C 29.108 10.159 33.44 12.557 36.102 16.239 L 37.518 15.421 Z  M 39.147 18.305 C 40.017 20.298 40.5 22.498 40.5 24.81 C 40.5 33.794 33.206 41.089 24.221 41.089 C 18.857 41.089 14.095 38.489 11.129 34.481 L 12.549 33.662 C 15.225 37.185 19.46 39.461 24.221 39.461 C 32.307 39.461 38.872 32.896 38.872 24.81 C 38.872 22.794 38.464 20.873 37.727 19.125 L 39.147 18.305 Z " fill-rule="evenodd" fill="rgb(142,116,93)"/><path d=" M 44.72 48.645 C 44.128 48.052 44.162 47.055 44.797 46.419 C 45.433 45.784 46.43 45.75 47.023 46.343 C 47.616 46.935 47.581 47.933 46.946 48.568 C 46.311 49.203 45.313 49.238 44.72 48.645 Z " fill-rule="evenodd" fill="rgb(142,116,93)"/><linearGradient id="_lgradient_2" x1="0" y1="0.5" x2="1" y2="0.5" gradientTransform="matrix(18.235,0,0,1.75,6.893,28.9)" gradientUnits="userSpaceOnUse"><stop offset="0%" stop-opacity="1" style="stop-color:rgb(255,157,45)"/><stop offset="27.083333333333332%" stop-opacity="1" style="stop-color:rgb(255,157,45)"/><stop offset="44.583333333333336%" stop-opacity="0" style="stop-color:rgb(255,157,45)"/><stop offset="100%" stop-opacity="0" style="stop-color:rgb(255,157,45)"/></linearGradient><rect x="6.893" y="28.9" width="18.235" height="1.75" transform="matrix(0.866,-0.5,0.5,0.866,-12.742,11.994)" fill="url(#_lgradient_2)"/><linearGradient id="_lgradient_3" x1="0" y1="0.5" x2="1" y2="0.5" gradientTransform="matrix(20.654,0,0,1.75,22.615,19.124)" gradientUnits="userSpaceOnUse"><stop offset="0%" stop-opacity="0" style="stop-color:rgb(255,157,45)"/><stop offset="52.916666666666664%" stop-opacity="0" style="stop-color:rgb(255,157,45)"/><stop offset="70.41666666666667%" stop-opacity="1" style="stop-color:rgb(255,157,45)"/><stop offset="98.75%" stop-opacity="1" style="stop-color:rgb(255,157,45)"/><stop offset="100%" stop-opacity="1" style="stop-color:rgb(255,157,45)"/></linearGradient><rect x="22.615" y="19.124" width="20.654" height="1.75" transform="matrix(0.866,-0.5,0.5,0.866,-5.586,19.151)" fill="url(#_lgradient_3)"/><path d=" M 41.449 14.078 L 48.855 18.319 L 40.635 15.593 L 41.449 14.078 Z " fill="rgb(255,157,45)"/><path d=" M 9.461 33.576 L 8.586 35.091 L 1.241 30.85 L 9.461 33.576 Z " fill="rgb(255,157,45)"/></g><path d=" M 16.516 21.179 C 16.516 20.676 16.783 19.96 17.143 19.608 C 17.143 19.608 18.02 18.267 20.309 18.267 C 22.927 18.267 23.696 19.826 23.696 19.826 C 23.998 20.22 24.244 20.946 24.244 21.45 L 24.244 31.444 C 24.244 31.444 23.1 29.558 20.928 29.237 C 18.959 28.946 16.913 30.535 16.913 30.535 L 16.516 30.535 L 16.516 21.179 Z  M 17.451 21.436 C 17.451 21.021 17.653 20.429 17.926 20.139 C 17.926 20.139 18.591 19.032 20.327 19.032 C 22.313 19.032 22.895 20.319 22.895 20.319 C 23.125 20.644 23.312 21.244 23.312 21.66 L 23.312 29.237 C 23.312 29.237 22.444 28.353 20.797 28.088 Q 19.304 27.848 17.451 29.16 L 17.451 21.436 Z " fill-rule="evenodd" fill="rgb(142,116,93)"/><path d=" M 32.427 21.179 L 32.427 30.535 L 32.029 30.535 C 32.029 30.535 29.984 28.946 28.015 29.237 C 25.842 29.558 24.699 31.444 24.699 31.444 L 24.699 21.45 C 24.699 20.946 24.944 20.22 25.247 19.826 C 25.247 19.826 26.016 18.267 28.634 18.267 C 30.923 18.267 31.8 19.608 31.8 19.608 C 32.16 19.96 32.427 20.676 32.427 21.179 Z  M 31.56 21.59 L 31.56 28.853 Q 29.638 27.832 28.09 28.066 C 26.381 28.324 25.482 29.45 25.482 29.45 L 25.482 21.807 C 25.482 21.402 25.675 20.819 25.914 20.502 C 25.914 20.502 26.518 19.249 28.577 19.249 C 30.377 19.249 31.067 20.326 31.067 20.326 C 31.35 20.61 31.56 21.185 31.56 21.59 Z " fill-rule="evenodd" fill="rgb(142,116,93)"/></g><path d=" M 15.469 27.938 L 11.725 30.1 C 11.079 28.481 10.722 26.708 10.722 24.85 C 10.722 17.211 16.974 10.784 24.397 10.784 C 28.841 10.784 33.011 13.233 35.46 16.657 L 32.179 18.422 L 32.179 18.422 C 32.179 18.422 31.114 17.351 28.97 17.351 C 25.963 17.351 25.081 18.77 25.081 18.77 C 24.882 19.04 24.705 19.44 24.592 19.848 C 24.477 19.44 24.296 19.04 24.094 18.77 C 24.094 18.77 23.195 17.351 20.132 17.351 C 17.454 17.351 16.202 18.96 16.202 18.96 C 15.781 19.382 15.469 20.242 15.469 20.846 L 15.469 27.938 Z  M 15.889 32.07 L 13.525 33.304 C 15.986 36.579 20.067 38.916 24.397 38.916 C 31.819 38.916 38.071 32.488 38.071 24.85 Q 38.071 23.108 37.186 19.904 L 33.551 22.003 L 33.551 32.069 L 33.095 32.069 C 33.095 32.069 30.52 30.389 28.258 30.738 C 26.438 31.019 24.692 33.104 24.592 32.969 C 24.494 33.104 22.709 31.019 20.857 30.738 C 18.553 30.389 16.159 32.07 16.159 32.07 L 15.889 32.07 Z " fill-rule="evenodd" fill="rgb(255,157,45)" fill-opacity="0.2"/></g></g></g></g></svg>