<?xml version="1.0" encoding="UTF-8" standalone="no"?><!-- Generator: Gravit.io --><svg xmlns="http://www.w3.org/2000/svg" xmlns:xlink="http://www.w3.org/1999/xlink" style="isolation:isolate" viewBox="0 0 30 30" width="40pt" height="40pt"><defs><clipPath id="_clipPath_Lv75gz33Ks51dRBvOTS1JkRdJQAfTZ6V"><rect width="30" height="30"/></clipPath></defs><g clip-path="url(#_clipPath_Lv75gz33Ks51dRBvOTS1JkRdJQAfTZ6V)"><clipPath id="_clipPath_yUFY1MieT5mHJ6HHkdtRMdKpLCX5RVya"><circle vector-effect="non-scaling-stroke" cx="15" cy="15" r="14.999999999999996" fill="rgb(255,255,255)"/></clipPath><g clip-path="url(#_clipPath_yUFY1MieT5mHJ6HHkdtRMdKpLCX5RVya)"><g><g><path d=" M 10.471 12.862 C 10.471 12.612 10.592 12.258 10.756 12.083 C 10.756 12.083 11.155 11.419 12.196 11.419 C 13.388 11.419 13.737 12.191 13.737 12.191 C 13.875 12.386 13.987 12.746 13.987 12.996 L 13.987 17.542 C 13.987 17.542 13.467 17.012 12.478 16.853 Q 11.582 16.709 10.471 17.496 L 10.471 12.862 Z " fill-rule="evenodd" fill="rgb(255,157,20)" fill-opacity="0.5"/><path d=" M 18.936 12.954 L 18.936 17.312 Q 17.783 16.699 16.854 16.839 C 15.829 16.994 15.289 17.67 15.289 17.67 L 15.289 13.084 C 15.289 12.841 15.405 12.491 15.548 12.301 C 15.548 12.301 15.911 11.549 17.146 11.549 C 18.226 11.549 18.64 12.196 18.64 12.196 C 18.81 12.366 18.936 12.711 18.936 12.954 Z " fill-rule="evenodd" fill="rgb(255,157,20)" fill-opacity="0.5"/><g><g><path d=" M 22.511 9.253 C 20.741 6.752 17.826 5.118 14.533 5.118 C 9.142 5.118 4.765 9.495 4.765 14.886 L 4.765 14.886 C 4.765 16.347 5.087 17.734 5.663 18.98 L 6.513 18.489 C 6.018 17.389 5.742 16.17 5.742 14.886 L 5.742 14.886 C 5.742 10.034 9.681 6.095 14.533 6.095 C 17.465 6.095 20.064 7.534 21.661 9.743 L 22.511 9.253 Z  M 23.488 10.983 C 24.01 12.179 24.3 13.499 24.3 14.886 C 24.3 20.277 19.923 24.653 14.533 24.653 C 11.314 24.653 8.457 23.093 6.677 20.689 L 7.529 20.197 C 9.135 22.311 11.676 23.677 14.533 23.677 C 19.384 23.677 23.323 19.738 23.323 14.886 C 23.323 13.677 23.079 12.524 22.636 11.475 L 23.488 10.983 Z " fill-rule="evenodd" fill="rgb(142,116,93)"/><path d=" M 28.214 27.806 L 21.675 21.267 L 20.294 22.649 L 26.832 29.187 L 26.832 29.187 L 26.832 29.187 C 27.188 29.543 27.786 29.522 28.168 29.141 C 28.549 28.76 28.569 28.161 28.214 27.806 L 28.214 27.806 Z " fill-rule="evenodd" fill="rgb(142,116,93)"/><linearGradient id="_lgradient_0" x1="0" y1="0.5" x2="1" y2="0.5" gradientTransform="matrix(10.941,0,0,1.05,4.136,17.34)" gradientUnits="userSpaceOnUse"><stop offset="0%" stop-opacity="1" style="stop-color:rgb(255,157,45)"/><stop offset="27.083333333333332%" stop-opacity="1" style="stop-color:rgb(255,157,45)"/><stop offset="44.583333333333336%" stop-opacity="0" style="stop-color:rgb(255,157,45)"/><stop offset="100%" stop-opacity="0" style="stop-color:rgb(255,157,45)"/></linearGradient><rect x="4.136" y="17.34" width="10.941" height="1.05" transform="matrix(0.866,-0.5,0.5,0.866,-7.645,7.197)" fill="url(#_lgradient_0)"/><linearGradient id="_lgradient_1" x1="0" y1="0.5" x2="1" y2="0.5" gradientTransform="matrix(12.393,0,0,1.05,13.569,11.474)" gradientUnits="userSpaceOnUse"><stop offset="0%" stop-opacity="0" style="stop-color:rgb(255,157,45)"/><stop offset="52.916666666666664%" stop-opacity="0" style="stop-color:rgb(255,157,45)"/><stop offset="70.41666666666667%" stop-opacity="1" style="stop-color:rgb(255,157,45)"/><stop offset="98.75%" stop-opacity="1" style="stop-color:rgb(255,157,45)"/><stop offset="100%" stop-opacity="1" style="stop-color:rgb(255,157,45)"/></linearGradient><rect x="13.569" y="11.474" width="12.393" height="1.05" transform="matrix(0.866,-0.5,0.5,0.866,-3.352,11.49)" fill="url(#_lgradient_1)"/><path d=" M 24.869 8.447 L 29.313 10.991 L 24.381 9.356 L 24.869 8.447 Z " fill="rgb(255,157,45)"/><path d=" M 5.677 20.145 L 5.152 21.055 L 0.744 18.51 L 5.677 20.145 Z " fill="rgb(255,157,45)"/></g><path d=" M 9.91 12.708 C 9.91 12.406 10.07 11.976 10.286 11.765 C 10.286 11.765 10.812 10.96 12.185 10.96 C 13.756 10.96 14.217 11.896 14.217 11.896 C 14.399 12.132 14.547 12.568 14.547 12.87 L 14.547 18.866 C 14.547 18.866 13.86 17.735 12.557 17.542 C 11.376 17.367 10.148 18.321 10.148 18.321 L 9.91 18.321 L 9.91 12.708 Z  M 10.471 12.862 C 10.471 12.612 10.592 12.258 10.756 12.083 C 10.756 12.083 11.155 11.419 12.196 11.419 C 13.388 11.419 13.737 12.191 13.737 12.191 C 13.875 12.386 13.987 12.746 13.987 12.996 L 13.987 17.542 C 13.987 17.542 13.467 17.012 12.478 16.853 Q 11.582 16.709 10.471 17.496 L 10.471 12.862 Z " fill-rule="evenodd" fill="rgb(142,116,93)"/><path d=" M 19.456 12.708 L 19.456 18.321 L 19.218 18.321 C 19.218 18.321 17.99 17.367 16.809 17.542 C 15.505 17.735 14.819 18.866 14.819 18.866 L 14.819 12.87 C 14.819 12.568 14.967 12.132 15.148 11.896 C 15.148 11.896 15.609 10.96 17.18 10.96 C 18.554 10.96 19.08 11.765 19.08 11.765 C 19.296 11.976 19.456 12.406 19.456 12.708 Z  M 18.936 12.954 L 18.936 17.312 Q 17.783 16.699 16.854 16.839 C 15.829 16.994 15.289 17.67 15.289 17.67 L 15.289 13.084 C 15.289 12.841 15.405 12.491 15.548 12.301 C 15.548 12.301 15.911 11.549 17.146 11.549 C 18.226 11.549 18.64 12.196 18.64 12.196 C 18.81 12.366 18.936 12.711 18.936 12.954 Z " fill-rule="evenodd" fill="rgb(142,116,93)"/></g><path d=" M 9.281 16.763 L 7.035 18.06 C 6.647 17.088 6.433 16.025 6.433 14.91 C 6.433 10.327 10.185 6.47 14.638 6.47 C 17.305 6.47 19.807 7.94 21.276 9.994 L 19.307 11.053 L 19.307 11.053 C 19.307 11.053 18.668 10.411 17.382 10.411 C 15.578 10.411 15.049 11.262 15.049 11.262 C 14.929 11.424 14.823 11.664 14.755 11.909 C 14.686 11.664 14.578 11.424 14.456 11.262 C 14.456 11.262 13.917 10.411 12.079 10.411 C 10.473 10.411 9.721 11.376 9.721 11.376 C 9.468 11.629 9.281 12.145 9.281 12.507 L 9.281 16.763 Z  M 9.533 19.242 L 8.115 19.982 C 9.591 21.948 12.04 23.35 14.638 23.35 C 19.092 23.35 22.843 19.493 22.843 14.91 Q 22.843 13.865 22.312 11.943 L 20.13 13.202 L 20.13 19.242 L 19.857 19.242 C 19.857 19.242 18.312 18.233 16.955 18.443 C 15.863 18.611 14.815 19.862 14.755 19.782 C 14.696 19.862 13.626 18.611 12.514 18.443 C 11.132 18.233 9.696 19.242 9.696 19.242 L 9.533 19.242 Z " fill-rule="evenodd" fill="rgb(255,157,45)" fill-opacity="0.2"/></g></g></g></g></svg>